<svg xmlns="http://www.w3.org/2000/svg" xmlns:xlink="http://www.w3.org/1999/xlink" viewBox="23 105 332 165" width="332" height="165" version="1.0"><defs><g/><clipPath id="6c9f89dc36"><rect x="0" width="335" y="0" height="136"/></clipPath><clipPath id="950a6c8787"><path d="M 49 155 L 182 155 L 182 185.152344 L 49 185.152344 Z M 49 155 " clip-rule="nonzero"/></clipPath></defs><g transform="matrix(1, 0, 0, 1, 30, 174)"><g clip-path="url(#6c9f89dc36)"><g fill="#ffffff" fill-opacity="1"><g transform="translate(0.410086, 95.915944)"><g><path d="M 2.859375 -33.875 C 2.859375 -40.550781 4.207031 -46.492188 6.90625 -51.703125 C 9.613281 -56.921875 13.476562 -60.976562 18.5 -63.875 C 23.53125 -66.769531 29.445312 -68.21875 36.25 -68.21875 C 42.101562 -68.21875 47.332031 -67.117188 51.9375 -64.921875 C 56.550781 -62.722656 60.304688 -59.617188 63.203125 -55.609375 C 66.097656 -51.609375 68.023438 -46.9375 68.984375 -41.59375 L 46.65625 -41.59375 C 45.632812 -43.820312 44.1875 -45.554688 42.3125 -46.796875 C 40.4375 -48.035156 38.289062 -48.65625 35.875 -48.65625 C 32.3125 -48.65625 29.492188 -47.316406 27.421875 -44.640625 C 25.359375 -41.972656 24.328125 -38.382812 24.328125 -33.875 C 24.328125 -29.351562 25.359375 -25.753906 27.421875 -23.078125 C 29.492188 -20.410156 32.3125 -19.078125 35.875 -19.078125 C 38.289062 -19.078125 40.4375 -19.695312 42.3125 -20.9375 C 44.1875 -22.175781 45.632812 -23.910156 46.65625 -26.140625 L 68.984375 -26.140625 C 68.023438 -20.796875 66.097656 -16.117188 63.203125 -12.109375 C 60.304688 -8.109375 56.550781 -5.007812 51.9375 -2.8125 C 47.332031 -0.613281 42.101562 0.484375 36.25 0.484375 C 29.445312 0.484375 23.53125 -0.960938 18.5 -3.859375 C 13.476562 -6.753906 9.613281 -10.8125 6.90625 -16.03125 C 4.207031 -21.25 2.859375 -27.195312 2.859375 -33.875 Z M 2.859375 -33.875 "/></g></g></g><g fill="#ffffff" fill-opacity="1"><g transform="translate(72.252231, 95.915944)"><g><path d="M 38.734375 0 L 26.046875 -24.234375 L 25.953125 -24.234375 L 25.953125 0 L 4.765625 0 L 4.765625 -67.546875 L 36.25 -67.546875 C 41.71875 -67.546875 46.390625 -66.578125 50.265625 -64.640625 C 54.148438 -62.703125 57.0625 -60.0625 59 -56.71875 C 60.945312 -53.375 61.921875 -49.601562 61.921875 -45.40625 C 61.921875 -40.894531 60.660156 -36.890625 58.140625 -33.390625 C 55.628906 -29.890625 52.023438 -27.378906 47.328125 -25.859375 L 62.015625 0 Z M 25.953125 -38.359375 L 34.34375 -38.359375 C 36.382812 -38.359375 37.910156 -38.816406 38.921875 -39.734375 C 39.941406 -40.660156 40.453125 -42.109375 40.453125 -44.078125 C 40.453125 -45.859375 39.925781 -47.253906 38.875 -48.265625 C 37.820312 -49.285156 36.3125 -49.796875 34.34375 -49.796875 L 25.953125 -49.796875 Z M 25.953125 -38.359375 "/></g></g></g><g fill="#ffffff" fill-opacity="1"><g transform="translate(136.175553, 95.915944)"><g><path d="M 48.078125 -10.203125 L 25.5625 -10.203125 L 22.234375 0 L 0 0 L 24.703125 -67.546875 L 49.140625 -67.546875 L 73.75 0 L 51.421875 0 Z M 42.9375 -26.140625 L 36.828125 -44.9375 L 30.71875 -26.140625 Z M 42.9375 -26.140625 "/></g></g></g><g fill="#ffffff" fill-opacity="1"><g transform="translate(209.925888, 95.915944)"><g><path d="M 52.46875 -67.546875 L 52.46875 -50.75 L 25.953125 -50.75 L 25.953125 -41.40625 L 45.03125 -41.40625 L 45.03125 -25.46875 L 25.953125 -25.46875 L 25.953125 0 L 4.765625 0 L 4.765625 -67.546875 Z M 52.46875 -67.546875 "/></g></g></g><g fill="#ffffff" fill-opacity="1"><g transform="translate(264.785522, 95.915944)"><g><path d="M 57.8125 -67.546875 L 57.8125 -50.75 L 39.875 -50.75 L 39.875 0 L 18.703125 0 L 18.703125 -50.75 L 0.953125 -50.75 L 0.953125 -67.546875 Z M 57.8125 -67.546875 "/></g></g></g></g></g><path fill="#ffffff" d="M 335.628906 143.238281 C 326.105469 139.945312 315.953125 140.199219 305.453125 143.984375 C 302.535156 145.035156 299.601562 146.140625 296.492188 147.3125 L 296.351562 147.363281 C 278.484375 154.085938 258.230469 161.707031 235.285156 161.710938 C 232.375 161.710938 229.445312 161.585938 226.566406 161.339844 C 212.765625 160.167969 199.890625 154.25 187.429688 148.523438 C 174.027344 142.363281 160.171875 135.992188 144.652344 135.09375 C 129.539062 134.378906 114.503906 135.132812 99.539062 137.363281 L 84.023438 139.738281 L 99.695312 140.617188 C 129.121094 142.269531 154.375 155.105469 171.089844 163.605469 C 192.832031 174.660156 210.003906 179.835938 225.125 179.886719 C 225.316406 179.886719 225.503906 179.886719 225.695312 179.886719 C 256.078125 179.886719 271.691406 170.734375 286.835938 161.855469 C 300.371094 153.917969 313.15625 146.421875 334.910156 146.421875 L 344.847656 146.425781 Z M 335.628906 143.238281 " fill-opacity="1" fill-rule="nonzero"/><path fill="#ffffff" d="M 141.433594 120.390625 C 166.394531 120.390625 179.714844 126.488281 189.4375 130.941406 L 190.605469 131.472656 C 192.394531 132.289062 194.324219 133.300781 196.5625 134.472656 C 206.632812 139.75 220.871094 147.214844 242.183594 147.214844 C 247.617188 147.199219 253.015625 146.746094 258.375 145.859375 L 268.824219 144.160156 L 258.351562 142.621094 C 235.382812 139.246094 224.71875 132.015625 214.402344 125.023438 C 206.550781 119.703125 199.136719 114.675781 186.46875 111.511719 C 166.144531 106.429688 144.355469 108.703125 117.902344 118.667969 L 105.335938 123.402344 L 118.671875 121.828125 C 126.230469 120.90625 133.820312 120.425781 141.433594 120.390625 Z M 190.125 129.453125 Z M 190.125 129.453125 " fill-opacity="1" fill-rule="nonzero"/><g clip-path="url(#950a6c8787)"><path fill="#ffffff" d="M 158.859375 174.753906 C 145.191406 167.914062 131.058594 160.839844 110.21875 156.839844 C 93.808594 153.691406 76.238281 155.894531 64.390625 158.296875 L 49.058594 161.40625 L 64.699219 161.539062 C 85.382812 161.71875 96.40625 166.851562 106.144531 171.386719 C 108.582031 172.519531 110.882812 173.59375 113.238281 174.539062 C 134.855469 183.226562 154.871094 184.777344 173.28125 185.164062 L 181.410156 185.332031 L 173.980469 182.027344 C 168.703125 179.679688 163.699219 177.175781 158.859375 174.753906 Z M 158.859375 174.753906 " fill-opacity="1" fill-rule="nonzero"/></g></svg>