<svg xmlns="http://www.w3.org/2000/svg" xmlns:xlink="http://www.w3.org/1999/xlink" width="512" zoomAndPan="magnify" viewBox="0 0 384 383.999986" height="512" preserveAspectRatio="xMidYMid meet" version="1.0"><defs><g/><clipPath id="3be55b55a4"><rect x="0" width="300" y="0" height="122"/></clipPath><clipPath id="4caa9f6feb"><path d="M 71.003906 154 L 180 154 L 180 179.628906 L 71.003906 179.628906 Z M 71.003906 154 " clip-rule="nonzero"/></clipPath></defs><g transform="matrix(1, 0, 0, 1, 47, 176)"><g clip-path="url(#3be55b55a4)"><g fill="#021932" fill-opacity="1"><g transform="translate(0.408591, 85.719541)"><g><path d="M 2.5625 -30.3125 C 2.5625 -36.28125 3.769531 -41.597656 6.1875 -46.265625 C 8.601562 -50.941406 12.0625 -54.570312 16.5625 -57.15625 C 21.0625 -59.75 26.351562 -61.046875 32.4375 -61.046875 C 37.675781 -61.046875 42.359375 -60.0625 46.484375 -58.09375 C 50.609375 -56.132812 53.96875 -53.359375 56.5625 -49.765625 C 59.15625 -46.179688 60.875 -42 61.71875 -37.21875 L 41.75 -37.21875 C 40.832031 -39.21875 39.535156 -40.769531 37.859375 -41.875 C 36.179688 -42.988281 34.257812 -43.546875 32.09375 -43.546875 C 28.90625 -43.546875 26.382812 -42.347656 24.53125 -39.953125 C 22.6875 -37.566406 21.765625 -34.351562 21.765625 -30.3125 C 21.765625 -26.269531 22.6875 -23.050781 24.53125 -20.65625 C 26.382812 -18.269531 28.90625 -17.078125 32.09375 -17.078125 C 34.257812 -17.078125 36.179688 -17.628906 37.859375 -18.734375 C 39.535156 -19.847656 40.832031 -21.398438 41.75 -23.390625 L 61.71875 -23.390625 C 60.875 -18.609375 59.15625 -14.425781 56.5625 -10.84375 C 53.96875 -7.257812 50.609375 -4.484375 46.484375 -2.515625 C 42.359375 -0.554688 37.675781 0.421875 32.4375 0.421875 C 26.351562 0.421875 21.0625 -0.867188 16.5625 -3.453125 C 12.0625 -6.046875 8.601562 -9.675781 6.1875 -14.34375 C 3.769531 -19.007812 2.5625 -24.332031 2.5625 -30.3125 Z M 2.5625 -30.3125 "/></g></g></g><g fill="#021932" fill-opacity="1"><g transform="translate(64.693274, 85.719541)"><g><path d="M 34.65625 0 L 23.3125 -21.6875 L 23.21875 -21.6875 L 23.21875 0 L 4.265625 0 L 4.265625 -60.453125 L 32.4375 -60.453125 C 37.332031 -60.453125 41.515625 -59.582031 44.984375 -57.84375 C 48.460938 -56.101562 51.066406 -53.738281 52.796875 -50.75 C 54.535156 -47.757812 55.40625 -44.390625 55.40625 -40.640625 C 55.40625 -36.597656 54.28125 -33.007812 52.03125 -29.875 C 49.78125 -26.75 46.550781 -24.503906 42.34375 -23.140625 L 55.5 0 Z M 23.21875 -34.328125 L 30.734375 -34.328125 C 32.554688 -34.328125 33.921875 -34.738281 34.828125 -35.5625 C 35.742188 -36.382812 36.203125 -37.675781 36.203125 -39.4375 C 36.203125 -41.03125 35.726562 -42.28125 34.78125 -43.1875 C 33.84375 -44.101562 32.492188 -44.5625 30.734375 -44.5625 L 23.21875 -44.5625 Z M 23.21875 -34.328125 "/></g></g></g><g fill="#021932" fill-opacity="1"><g transform="translate(121.892158, 85.719541)"><g><path d="M 43.03125 -9.140625 L 22.875 -9.140625 L 19.890625 0 L 0 0 L 22.109375 -60.453125 L 43.96875 -60.453125 L 66 0 L 46.015625 0 Z M 38.421875 -23.390625 L 32.953125 -40.21875 L 27.484375 -23.390625 Z M 38.421875 -23.390625 "/></g></g></g><g fill="#021932" fill-opacity="1"><g transform="translate(187.884298, 85.719541)"><g><path d="M 46.953125 -60.453125 L 46.953125 -45.421875 L 23.21875 -45.421875 L 23.21875 -37.046875 L 40.296875 -37.046875 L 40.296875 -22.796875 L 23.21875 -22.796875 L 23.21875 0 L 4.265625 0 L 4.265625 -60.453125 Z M 46.953125 -60.453125 "/></g></g></g><g fill="#021932" fill-opacity="1"><g transform="translate(236.972951, 85.719541)"><g><path d="M 51.734375 -60.453125 L 51.734375 -45.421875 L 35.6875 -45.421875 L 35.6875 0 L 16.734375 0 L 16.734375 -45.421875 L 0.859375 -45.421875 L 0.859375 -60.453125 Z M 51.734375 -60.453125 "/></g></g></g></g></g><path fill="#021932" d="M 304.875 145.117188 C 297.121094 142.4375 288.855469 142.640625 280.308594 145.726562 C 277.933594 146.582031 275.542969 147.480469 273.011719 148.433594 L 272.898438 148.476562 C 258.351562 153.949219 241.867188 160.152344 223.1875 160.152344 C 220.820312 160.152344 218.433594 160.054688 216.089844 159.855469 C 204.855469 158.898438 194.375 154.082031 184.230469 149.417969 C 173.320312 144.40625 162.042969 139.21875 149.40625 138.488281 C 137.105469 137.902344 124.863281 138.519531 112.683594 140.332031 L 100.054688 142.269531 L 112.8125 142.984375 C 136.765625 144.328125 157.320312 154.777344 170.929688 161.699219 C 188.628906 170.699219 202.605469 174.910156 214.914062 174.949219 C 215.070312 174.949219 215.226562 174.953125 215.378906 174.953125 C 240.113281 174.949219 252.824219 167.5 265.152344 160.273438 C 276.171875 153.8125 286.578125 147.710938 304.285156 147.710938 L 312.378906 147.710938 Z M 304.875 145.117188 " fill-opacity="1" fill-rule="nonzero"/><path fill="#021932" d="M 146.789062 126.515625 C 167.109375 126.515625 177.949219 131.480469 185.867188 135.105469 L 186.816406 135.539062 C 188.273438 136.203125 189.84375 137.027344 191.664062 137.980469 C 199.863281 142.277344 211.453125 148.355469 228.800781 148.355469 C 233.226562 148.339844 237.621094 147.972656 241.984375 147.25 L 250.488281 145.867188 L 241.964844 144.613281 C 223.269531 141.867188 214.585938 135.980469 206.1875 130.289062 C 199.796875 125.957031 193.761719 121.867188 183.449219 119.289062 C 166.902344 115.152344 149.167969 117.003906 127.632812 125.113281 L 117.402344 128.96875 L 128.257812 127.6875 C 134.414062 126.9375 140.589844 126.546875 146.789062 126.515625 Z M 186.425781 133.894531 Z M 186.425781 133.894531 " fill-opacity="1" fill-rule="nonzero"/><g clip-path="url(#4caa9f6feb)"><path fill="#021932" d="M 160.972656 170.773438 C 149.847656 165.203125 138.34375 159.445312 121.378906 156.191406 C 108.019531 153.625 93.714844 155.417969 84.070312 157.375 L 71.589844 159.90625 L 84.324219 160.015625 C 101.160156 160.160156 110.132812 164.339844 118.058594 168.03125 C 120.042969 168.953125 121.917969 169.828125 123.835938 170.597656 C 141.433594 177.667969 157.726562 178.933594 172.710938 179.246094 L 179.328125 179.386719 L 173.28125 176.695312 C 168.984375 174.785156 164.914062 172.746094 160.972656 170.773438 Z M 160.972656 170.773438 " fill-opacity="1" fill-rule="nonzero"/></g></svg>